:SAMPLES-PER-SECOND 30
:FULLY-SPECIFIED
:DEGREES
136
root  -4.91924 40.6894 -0.821181 1.73726 -38.8055 3.3092
RightUpLeg  4.92738 -4.33786 0.70374
RightLeg  -10.3071 -66.513 11.4388
RightFoot  -3.43669 -0.365211 4.94239
RightToes  -3.1126e-008 1.75238e-005 3.56266e-009
Spine  10.3483 8.07442 4.28654
Spine1  -17.5694 8.31612 -12.0999
HEad  -6.79608 -0.555806 4.1109
LeftShoulder1  0.435932 1.53158 -15.2214
LeftArm  -6.18682 8.34969 -49.923
LeftForeArm  59.8463 -75.8457 -39.8683
LeftHand  -0.573843 -4.52237 7.00292
RightShoulder  1.03144 1.13959 15.4885
RightArm  -22.5767 29.4578 30.1805
RightForeArm  75.406 79.462 83.4688
RightHand  -0.0655961 8.37665 -0.928925
LeftUpLeg  -9.15846 -2.84788 0.42844
LeftLeg  0.287141 -28.5921 0.553454
LeftFoot  3.0572 0.910809 -7.3515
LeftToes  4.78049e-008 1.46235e-008 1.34219e-009
137
root  -4.89065 40.7012 -0.765849 1.86301 -39.546 3.27666
RightUpLeg  4.82616 -4.10057 0.72755
RightLeg  -10.308 -66.0547 11.1774
RightFoot  -3.19975 -0.375478 4.96547
RightToes  -3.1126e-008 1.75238e-005 3.56266e-009
Spine  10.0607 8.14755 3.408
Spine1  -17.3765 8.32911 -10.7184
HEad  -7.35987 -0.0585939 3.68861
LeftShoulder1  0.510966 1.27233 -16.1413
LeftArm  -4.66363 12.9009 -50.2556
LeftForeArm  60.9272 -75.8608 -39.6056
LeftHand  -0.620999 -4.71389 7.42421
RightShoulder  0.826129 0.458692 14.0391
RightArm  -25.3098 32.9742 30.2978
RightForeArm  76.3319 79.4863 84.1669
RightHand  -0.137548 8.63026 -1.52448
LeftUpLeg  -9.10963 -2.85402 0.445279
LeftLeg  0.212922 -27.844 0.588296
LeftFoot  3.07665 0.876492 -7.07206
LeftToes  4.78049e-008 1.46235e-008 1.34219e-009
138
root  -4.86132 40.7088 -0.709493 1.81627 -40.3447 3.25693
RightUpLeg  4.89768 -4.07975 0.610642
RightLeg  -10.1454 -65.2978 10.9206
RightFoot  -3.052 -0.378617 4.93342
RightToes  -3.1126e-008 1.75238e-005 3.56266e-009
Spine  10.1008 8.01344 2.58966
Spine1  -17.5004 8.11983 -9.49734
HEad  -7.91291 1.03055 3.47486
LeftShoulder1  0.454581 1.53677 -16.3229
LeftArm  -3.57006 17.6848 -51.1074
LeftForeArm  63.1141 -76.3588 -41.3001
LeftHand  -0.600287 -4.75839 7.16914
RightShoulder  0.798342 0.439904 13.3457
RightArm  -28.1607 36.0477 30.0499
RightForeArm  76.9629 79.4802 85.3457
RightHand  -0.0740407 8.7258 -0.994898
LeftUpLeg  -8.94756 -2.76171 0.467537
LeftLeg  0.287876 -27.1441 0.470579
LeftFoot  3.05995 0.816873 -6.60873
LeftToes  4.78049e-008 1.46235e-008 1.34219e-009
139
root  -4.82255 40.7245 -0.654859 1.98613 -41.359 3.11562
RightUpLeg  4.88872 -4.0044 0.553399
RightLeg  -10.3779 -64.3455 11.0694
RightFoot  -2.88363 -0.381007 4.88367
RightToes  -3.1126e-008 1.75238e-005 3.56266e-009
Spine  10.0665 8.08306 3.22122
Spine1  -17.4641 8.24748 -10.5561
HEad  -8.1392 0.677171 4.23414
LeftShoulder1  0.403155 1.70245 -15.5656
LeftArm  -2.5915 21.0035 -52.1839
LeftForeArm  64.4442 -76.5694 -41.9476
LeftHand  -0.523244 -5.3799 5.9442
RightShoulder  0.835633 0.519146 13.9213
RightArm  -31.3004 37.8108 28.6298
RightForeArm  78.9924 79.4585 88.5786
RightHand  -0.0501622 8.64683 -0.800892
LeftUpLeg  -8.87342 -2.71426 0.569403
LeftLeg  0.251324 -26.1902 0.536171
LeftFoot  2.98127 0.786314 -6.399
LeftToes  4.78049e-008 1.46235e-008 1.34219e-009
140
root  -4.80131 40.7364 -0.62437 1.91457 -42.3695 3.069
RightUpLeg  5.07395 -3.81715 0.559789
RightLeg  -10.7439 -63.5315 11.1797
RightFoot  -2.72272 -0.37232 4.6906
RightToes  -3.1126e-008 1.75238e-005 3.56266e-009
Spine  10.064 8.32732 3.47076
Spine1  -17.1123 8.55033 -10.7677
HEad  -8.44851 0.585749 4.01248
LeftShoulder1  0.412537 1.71228 -16.2651
LeftArm  -2.3373 22.5217 -52.4244
LeftForeArm  64.1049 -76.3984 -41.1736
LeftHand  -0.564477 -5.1716 6.51428
RightShoulder  0.719975 0.111013 13.0105
RightArm  -33.259 38.9267 28.7628
RightForeArm  80.3347 79.4423 90.3717
RightHand  -0.105635 8.92342 -1.2445
LeftUpLeg  -8.59245 -2.57826 0.654015
LeftLeg  0.171465 -25.3237 0.540918
LeftFoot  2.96345 0.749874 -6.11644
LeftToes  4.78049e-008 1.46235e-008 1.34219e-009
141
root  -4.78001 40.7428 -0.602812 1.83676 -42.8867 3.06177
RightUpLeg  5.15455 -3.837 0.475394
RightLeg  -10.6591 -63.0115 11.0571
RightFoot  -2.68363 -0.374417 4.70146
RightToes  -3.1126e-008 1.75238e-005 3.56266e-009
Spine  10.4545 8.32625 4.29141
Spine1  -17.3689 8.59958 -12.0311
HEad  -8.42602 0.207738 4.33329
LeftShoulder1  0.453288 1.51972 -16.0803
LeftArm  -2.53018 22.886 -52.7975
LeftForeArm  62.7405 -76.0962 -40.1211
LeftHand  -0.58544 -4.82136 6.9556
RightShoulder  0.650102 -0.242483 13.0289
RightArm  -34.0001 39.1221 28.8725
RightForeArm  79.4429 79.4547 89.0632
RightHand  -0.152917 9.12537 -1.61449
LeftUpLeg  -8.42113 -2.51189 0.671017
LeftLeg  0.126773 -24.8344 0.509275
LeftFoot  2.96853 0.739266 -6.02966
LeftToes  4.78049e-008 1.46235e-008 1.34219e-009
142
root  -4.76897 40.7448 -0.59196 1.68063 -43.055 3.10487
RightUpLeg  5.2724 -3.88417 0.393074
RightLeg  -10.5538 -62.802 10.9428
RightFoot  -2.66579 -0.372825 4.65793
RightToes  -3.1126e-008 1.75238e-005 3.56266e-009
Spine  9.05059 8.55675 2.1943
Spine1  -15.7444 8.79268 -8.7421
HEad  -8.31322 0.592748 3.26957
LeftShoulder1  0.437258 1.6796 -17.2678
LeftArm  -3.84167 22.1999 -53.2143
LeftForeArm  62.8635 -76.1282 -40.2382
LeftHand  -0.542459 -5.37196 6.15834
RightShoulder  0.658984 -0.0924724 12.3261
RightArm  -33.9121 39.6627 29.1326
RightForeArm  74.317 79.4123 83.5547
RightHand  -0.0998086 8.98287 -1.19711
LeftUpLeg  -8.24831 -2.47863 0.648807
LeftLeg  0.0909065 -24.7671 0.490763
LeftFoot  2.96275 0.730202 -5.96509
LeftToes  4.78049e-008 1.46235e-008 1.34219e-009
143
root  -4.75078 40.7444 -0.584405 1.63675 -42.991 3.10059
RightUpLeg  5.30386 -3.95706 0.341307
RightLeg  -10.4799 -62.8021 10.9218
RightFoot  -2.67369 -0.374534 4.66704
RightToes  -3.1126e-008 1.75238e-005 3.56266e-009
Spine  9.45376 8.31299 2.69389
Spine1  -16.3742 8.54689 -9.65097
HEad  -7.46767 0.626401 3.4918
LeftShoulder1  0.47171 1.50982 -16.9378
LeftArm  -4.17325 20.9276 -52.8736
LeftForeArm  62.6258 -76.2546 -40.937
LeftHand  -0.571487 -5.10545 6.62339
RightShoulder  0.727625 0.149209 12.9967
RightArm  -32.7745 38.4876 29.2626
RightForeArm  73.908 79.4069 82.906
RightHand  -0.114923 8.56012 -1.33988
LeftUpLeg  -8.2462 -2.52017 0.603832
LeftLeg  0.166186 -24.7841 0.483722
LeftFoot  2.94569 0.721372 -5.91919
LeftToes  4.78049e-008 1.46235e-008 1.34219e-009
144
root  -4.75183 40.7439 -0.585673 1.42548 -43.0523 3.09904
RightUpLeg  5.53653 -4.01445 0.30778
RightLeg  -10.4622 -62.6955 10.9171
RightFoot  -2.68061 -0.38091 4.74926
RightToes  -3.1126e-008 1.75238e-005 3.56266e-009
Spine  9.5443 8.27933 2.36038
Spine1  -16.5198 8.47833 -9.28732
HEad  -6.44397 -0.170404 3.59513
LeftShoulder1  0.471865 1.48043 -16.5733
LeftArm  -5.05424 19.2569 -52.846
LeftForeArm  62.4883 -76.3365 -41.4012
LeftHand  -0.595754 -4.94688 6.98665
RightShoulder  0.777316 0.322629 13.4322
RightArm  -31.2733 37.3378 29.6471
RightForeArm  72.9749 79.3952 81.4146
RightHand  -0.139628 8.39536 -1.55541
LeftUpLeg  -7.9664 -2.4697 0.598834
LeftLeg  0.0854823 -24.7593 0.504383
LeftFoot  2.94346 0.713059 -5.82953
LeftToes  4.78049e-008 1.46235e-008 1.34219e-009
145
root  -4.7353 40.7456 -0.588314 1.27252 -43.154 3.16028
RightUpLeg  5.59566 -4.09039 0.209728
RightLeg  -10.2468 -62.5091 10.7269
RightFoot  -2.68025 -0.376677 4.6667
RightToes  -3.1126e-008 1.75238e-005 3.56266e-009
Spine  9.63223 8.2731 2.14485
Spine1  -16.6917 8.43881 -8.99457
HEad  -5.69882 -0.793323 3.21726
LeftShoulder1  0.490316 1.38794 -16.4095
LeftArm  -6.02548 17.6678 -52.6312
LeftForeArm  62.8536 -76.5233 -42.2663
LeftHand  -0.588235 -4.85326 6.9621
RightShoulder  0.820366 0.476707 13.7559
RightArm  -29.8257 36.5052 30.0496
RightForeArm  71.8142 79.3677 79.6711
RightHand  -0.113628 8.65804 -1.32353
LeftUpLeg  -7.81702 -2.48846 0.540547
LeftLeg  0.0123808 -24.5285 0.512027
LeftFoot  2.98948 0.719159 -5.86253
LeftToes  4.78049e-008 1.46235e-008 1.34219e-009
146
root  -4.70832 40.7509 -0.58054 1.15077 -43.5141 3.29697
RightUpLeg  5.52994 -4.18989 0.0182605
RightLeg  -9.86896 -62.044 10.3686
RightFoot  -2.63787 -0.377018 4.65443
RightToes  -3.1126e-008 1.75238e-005 3.56266e-009
Spine  9.50323 8.35043 1.93107
Spine1  -16.6541 8.49399 -8.61487
HEad  -5.08388 -0.597338 2.87543
LeftShoulder1  0.544784 1.16262 -16.5182
LeftArm  -7.44849 16.5493 -52.2967
LeftForeArm  63.0376 -76.8108 -43.8331
LeftHand  -0.570952 -4.30623 7.11325
RightShoulder  0.891275 0.775128 13.9876
RightArm  -28.9534 36.229 30.4981
RightForeArm  68.8542 79.2553 76.4563
RightHand  -0.108551 8.85311 -1.27258
LeftUpLeg  -7.68523 -2.50837 0.480583
LeftLeg  -0.170722 -24.104 0.505328
LeftFoot  3.05937 0.730138 -5.92415
LeftToes  4.78049e-008 1.46235e-008 1.34219e-009
147
root  -4.67583 40.7589 -0.559627 1.04665 -43.9984 3.35472
RightUpLeg  5.55658 -4.20022 -0.102519
RightLeg  -9.76001 -61.5643 10.1888
RightFoot  -2.54688 -0.376634 4.62946
RightToes  -3.1126e-008 1.75238e-005 3.56266e-009
Spine  9.21671 8.35775 1.8349
Spine1  -16.3435 8.51248 -8.23309
HEad  -4.5684 0.0152496 2.75582
LeftShoulder1  0.473 1.46321 -16.4186
LeftArm  -8.4134 15.4957 -52.0396
LeftForeArm  62.8662 -76.9098 -44.5013
LeftHand  -0.601055 -4.14176 7.59568
RightShoulder  0.955391 1.03967 14.2056
RightArm  -28.5308 36.7311 30.6063
RightForeArm  67.4153 79.187 74.75
RightHand  -0.102549 8.77495 -1.22788
LeftUpLeg  -7.50134 -2.49561 0.45121
LeftLeg  -0.330348 -23.6245 0.525984
LeftFoot  3.10716 0.736863 -5.9566
LeftToes  4.78049e-008 1.46235e-008 1.34219e-009
148
root  -4.64671 40.7631 -0.542263 1.04172 -44.192 3.31848
RightUpLeg  5.5802 -4.07036 -0.0598517
RightLeg  -9.8325 -61.4982 10.1065
RightFoot  -2.43119 -0.380321 4.66454
RightToes  -3.1126e-008 1.75238e-005 3.56266e-009
Spine  9.11777 8.38158 2.06598
Spine1  -16.3357 8.54183 -8.26768
HEad  -4.10455 0.184105 2.41658
LeftShoulder1  0.500101 1.34481 -16.4222
LeftArm  -9.11669 14.24 -51.6179
LeftForeArm  61.2411 -76.486 -42.6531
LeftHand  -0.610175 -3.91247 7.8812
RightShoulder  0.905438 0.823528 14.0935
RightArm  -28.6569 37.1964 30.5973
RightForeArm  68.2881 79.2285 75.6167
RightHand  -0.116014 8.48499 -1.35201
LeftUpLeg  -7.45885 -2.47603 0.455968
LeftLeg  -0.337007 -23.4565 0.510176
LeftFoot  3.1199 0.736921 -5.91975
LeftToes  4.78049e-008 1.46235e-008 1.34219e-009
149
root  -4.61896 40.7664 -0.523467 1.08475 -44.1549 3.27782
RightUpLeg  5.569 -4.09186 -0.0809004
RightLeg  -9.88613 -61.5091 10.1593
RightFoot  -2.38978 -0.382908 4.66467
RightToes  -3.1126e-008 1.75238e-005 3.56266e-009
Spine  9.48007 8.14694 2.74214
Spine1  -17.1816 8.28833 -9.35165
HEad  -3.29457 0.496823 3.21247
LeftShoulder1  0.546298 1.06611 -15.5795
LeftArm  -9.96648 13.3441 -51.4455
LeftForeArm  59.261 -75.9062 -40.3366
LeftHand  -0.573383 -4.37031 7.10144
RightShoulder  0.941093 0.920042 14.4815
RightArm  -29.8315 37.0746 29.9158
RightForeArm  70.1532 79.3084 78.0489
RightHand  -0.104331 8.31851 -1.2624
LeftUpLeg  -7.47905 -2.50969 0.424611
LeftLeg  -0.355684 -23.4705 0.52958
LeftFoot  3.16873 0.732218 -5.82125
LeftToes  4.78049e-008 1.46235e-008 1.34219e-009
150
root  -4.58971 40.7639 -0.50606 1.08842 -43.7577 3.28102
RightUpLeg  5.55536 -4.16635 -0.134353
RightLeg  -9.87502 -61.8394 10.2016
RightFoot  -2.35795 -0.388462 4.70234
RightToes  -3.1126e-008 1.75238e-005 3.56266e-009
Spine  9.38365 7.78626 2.36486
Spine1  -17.3301 7.88317 -8.66387
HEad  -2.50698 0.20894 2.90256
LeftShoulder1  0.595095 0.867759 -15.7676
LeftArm  -11.1376 12.9287 -50.6078
LeftForeArm  58.9485 -75.8996 -40.4214
LeftHand  -0.564235 -4.61269 6.8368
RightShoulder  0.882133 0.751515 13.8767
RightArm  -31.6541 37.3471 29.6299
RightForeArm  69.278 79.2694 77.7624
RightHand  -0.0796359 8.46878 -1.05057
LeftUpLeg  -7.53467 -2.5983 0.315205
LeftLeg  -0.373506 -23.7731 0.552454
LeftFoot  3.254 0.729809 -5.76027
LeftToes  4.78049e-008 1.46235e-008 1.34219e-009
